# xmcd CD database file
#
# Track frame offsets:
#	150
#	22471
#	48649
#	74051
#	95872
#	113972
#	134084
#	148857
#	184312
#	202328
#	212792
#	240534
#	263534
#	283932
#	294145
#	316486
#
# Disc length: 4378 seconds
#
# Revision: 1
# Processed by: cddbd v1.5.2PL0 Copyright (c) Steve Scherf et al.
# Submitted via: CDex 1.51
#
DISCID=1c111810
DTITLE=Heinrich Böll - Ansichten eines Clowns
DYEAR=1963
DGENRE=Lesung
TTITLE0=401
TTITLE1=402
TTITLE2=403
TTITLE3=404
TTITLE4=405
TTITLE5=406
TTITLE6=407
TTITLE7=408
TTITLE8=409
TTITLE9=410
TTITLE10=411
TTITLE11=412
TTITLE12=413
TTITLE13=414
TTITLE14=415
TTITLE15=416
EXTD=YEAR: 1963
EXTT0=
EXTT1=
EXTT2=
EXTT3=
EXTT4=
EXTT5=
EXTT6=
EXTT7=
EXTT8=
EXTT9=
EXTT10=
EXTT11=
EXTT12=
EXTT13=
EXTT14=
EXTT15=
PLAYORDER=
